<svg width="30" height="30" viewBox="0 0 30 30" fill="none" xmlns="http://www.w3.org/2000/svg">
<path fill-rule="evenodd" clip-rule="evenodd" d="M15.0002 9.32397e-05C6.70922 9.32397e-05 0 6.7053 0 15.0002C0 18.1285 0.953983 21.0219 2.64853 23.5081C2.77618 23.6975 2.81071 23.9348 2.74218 24.1527L1.21872 29.2504L6.21103 27.5276V27.5278C6.4271 27.4557 6.66435 27.486 6.85557 27.6097C9.19385 29.1269 11.9933 30.0003 14.9998 30.0003C23.2948 30.0003 30 23.2951 30 15.0002C30 6.7052 23.2948 0 14.9998 0L15.0002 9.32397e-05ZM8.85953 6.53909L11.5899 11.0509L10.453 12.1759L10.4533 12.1762C10.2153 12.4161 10.1674 12.7857 10.3361 13.0784C12.0709 16.0824 14.1262 18.4194 17.0041 19.6878C17.2863 19.8134 17.6164 19.7529 17.8362 19.5356L19.0431 18.3286L23.4495 21.0826C22.9616 22.1807 22.3254 22.8344 21.598 23.2153C20.7552 23.6566 19.7259 23.74 18.5511 23.4965C16.2016 23.0094 13.3637 21.1629 11.051 18.7971C8.73839 16.4317 6.94861 13.5551 6.49245 11.2147C6.26435 10.0446 6.36506 9.037 6.79719 8.23817C7.16916 7.55024 7.80113 6.96142 8.85978 6.53894L8.85953 6.53909Z" fill="#02B514"/>
</svg>
