<svg width="104" height="104" viewBox="0 0 104 104" fill="none" xmlns="http://www.w3.org/2000/svg">
<circle cx="91" cy="59" r="13" fill="#FF951A"/>
<path d="M30.2908 25.1026C30.2914 25.0898 30.2978 25.0793 30.2978 25.0666C30.2978 25.0538 30.2914 25.0439 30.2908 25.0312L30.2781 20.7446C30.2781 20.7365 30.2827 20.7301 30.2827 20.722C30.2827 20.7138 30.2781 20.7075 30.2781 20.6993L30.2647 16.1226C30.2647 16.1179 30.2676 16.1139 30.2676 16.1087C30.2676 16.104 30.2647 16.1 30.2647 16.0947L30.2473 10.0996C30.245 9.17797 29.4928 8.43157 28.5729 8.43157H28.5665L27.62 8.43505L27.6031 3.63961C27.602 3.06505 27.1342 2.59961 26.5597 2.59961H26.5556L22.9963 2.61122C22.7194 2.61122 22.4548 2.72206 22.2598 2.91938C22.0648 3.11554 21.9551 3.38077 21.9563 3.65876L21.9719 8.45361L21.0248 8.45709C20.1009 8.45941 19.3528 9.21446 19.3568 10.1367L19.362 11.9938C17.3505 12.0136 15.7232 13.6577 15.7308 15.6722L15.7969 34.8067C15.7975 34.9425 15.7134 35.0429 15.6542 35.1549C15.4528 35.0673 15.2328 35.0162 14.9995 35.0168C14.0959 35.0197 13.3658 35.755 13.3687 36.6586C13.3721 37.5622 14.1069 38.2923 15.0105 38.2889C15.7215 38.2866 16.3094 37.8252 16.5328 37.1915C17.329 36.6749 17.8868 35.8195 17.8844 34.8009L17.8183 15.6649C17.816 14.8031 18.5089 14.1032 19.3685 14.0846L19.5246 67.0042C19.5246 67.006 19.524 67.0072 19.524 67.0089C19.524 67.0106 19.5252 67.0124 19.5252 67.0135L19.5258 67.1401C19.5258 67.2724 19.5513 67.4035 19.6012 67.526L23.9655 78.3973L23.969 79.2887C23.9701 79.8632 24.4379 80.3287 25.0124 80.3287H25.0165C25.5928 80.3275 26.0588 79.8586 26.0565 79.2811L26.053 78.3897L30.3297 67.5202C30.3297 67.5197 30.3302 67.5191 30.3302 67.5185L30.3424 67.4883C30.3749 67.4059 30.3807 67.3165 30.3917 67.2289C30.3964 67.19 30.415 67.1563 30.4155 67.1163C30.4155 67.114 30.4144 67.1122 30.4144 67.1099C30.4144 67.1076 30.4155 67.1059 30.4155 67.1035L30.2908 25.1026ZM25.5186 4.69182L25.5313 8.44266L24.821 8.44498L24.0607 8.44788L24.0479 4.69705L25.5186 4.69182ZM21.4538 13.2457V13.2201L21.4457 10.5435L23.0185 10.5383C23.019 10.5383 23.0196 10.5388 23.0202 10.5388H23.0243L24.8041 10.5324L28.1616 10.5208L28.1749 15.0726L21.4602 15.0947L21.4538 13.2457ZM21.4648 17.1822L28.1795 17.1602L28.1871 19.6859L21.4724 19.7079L21.4648 17.1822ZM21.4788 21.7961L28.1934 21.7741L28.1998 24.031L21.4857 24.0531L21.4788 21.7961ZM21.4915 26.1406L23.8124 26.1331L23.9226 66.0082L21.6094 65.985L21.4915 26.1406ZM24.9975 75.3668L22.0714 68.077L27.8431 68.1344L24.9975 75.3668ZM26.0102 66.0288L25.9 26.1255L28.2058 26.1179L28.3224 66.0524L26.0102 66.0288Z" fill="black"/>
<path d="M90.544 4.02117C90.5417 3.44488 90.0751 2.97885 89.4988 2.97885L34.6165 2.97827C34.0402 2.97827 33.573 3.44487 33.573 4.02059L33.4866 79.5543C33.4866 79.8311 33.5963 80.0969 33.7913 80.2937C33.9874 80.4898 34.2538 80.5995 34.5306 80.5995H68.1212C70.6527 80.5995 72.8858 79.3906 74.3466 77.545C74.3779 77.5195 74.4157 77.5079 74.4447 77.4783L88.8689 62.5513C88.9089 62.5101 88.9257 62.4579 88.9577 62.4126C89.993 61.3767 90.6325 59.971 90.6325 58.4685L90.544 4.02117ZM76.0745 72.7845C76.0757 72.7328 76.0896 72.6846 76.0896 72.6324V64.8446C79.3129 65.2677 81.8857 65.0907 83.9134 64.6722L76.0745 72.7845ZM86.5604 61.6288C84.5291 62.6114 80.9071 63.5765 75.2202 62.5998C74.9167 62.5516 74.6062 62.6317 74.3718 62.8319C74.1373 63.0304 73.9997 63.3223 73.9997 63.6299V72.6325C73.9997 75.8749 71.3614 78.5126 68.1196 78.5126H35.575L35.6592 5.06634H88.457L88.5411 58.4703C88.5411 59.8086 87.764 61.0488 86.561 61.6299L86.5604 61.6288Z" fill="black"/>
<path d="M83.0738 8.84448H41.043C40.4667 8.84448 39.9995 9.31224 39.9995 9.88796V56.7949C39.9995 57.3712 40.4673 57.8384 41.043 57.8384H56.7945L60.6278 57.839C60.6313 57.839 60.6342 57.8367 60.6383 57.8367C60.6418 57.8367 60.6447 57.839 60.6487 57.839C61.225 57.839 61.6939 57.3712 61.6939 56.7955C61.6939 53.8119 63.8604 51.3257 66.7024 50.8301V56.7955C66.7024 57.3718 67.1714 57.839 67.7477 57.839H83.0743C83.6506 57.839 84.1195 57.3712 84.1195 56.7955L84.1184 23.3343V9.88913C84.1178 9.31284 83.6488 8.84508 83.0731 8.84508L83.0738 8.84448ZM42.086 10.9321H61.0125V14.131C61.0125 14.7072 61.4814 15.1744 62.0577 15.1744C63.8545 15.1744 65.3738 16.3926 65.8323 18.0484H62.0577C61.4814 18.0484 61.0125 18.5162 61.0125 19.0919V22.3123L56.2384 22.4179C56.2257 20.4667 56.228 16.3846 56.228 16.3846C56.228 15.8083 55.7591 15.3411 55.1828 15.3411C51.0535 15.3411 47.6306 18.4304 47.1082 22.4192L42.0857 22.3113L42.086 10.9321ZM55.7493 55.7516H42.086V33.7066H55.7493V40.1357H49.6956C49.1193 40.1357 48.6504 40.6035 48.6504 41.1792C48.6504 45.3124 51.7553 48.6982 55.7487 49.2172L55.7493 55.7516ZM71.1592 41.0854V55.7516H68.7912V49.6955C68.7912 49.1192 68.3223 48.6521 67.746 48.6521C63.6121 48.6521 60.2269 51.7575 59.708 55.7516H57.8387V48.2794C57.8387 47.7032 57.3697 47.236 56.7934 47.236C53.811 47.236 51.3259 45.0671 50.829 42.2235H56.7934C57.3697 42.2235 57.8387 41.7557 57.8387 41.18V32.6627C57.8387 32.0864 57.3697 31.6192 56.7934 31.6192H42.0855V24.4007L48.0585 24.5296H48.0811C48.3539 24.5296 48.6162 24.4222 48.81 24.2313C49.0114 24.0351 49.1263 23.7658 49.1263 23.4855C49.1263 20.5019 51.2952 18.0157 54.1372 17.5201C54.1395 24.5233 54.313 24.5802 55.2306 24.5297L62.0667 24.3782H71.1585V33.9848C71.1585 34.5611 71.6274 35.0283 72.2037 35.0283C75.1861 35.0283 77.6735 37.1971 78.1681 40.042H72.2037C71.628 40.0414 71.1591 40.5092 71.1591 41.0855L71.1592 41.0854ZM82.0275 55.7516H73.249V42.1294H79.3027C79.879 42.1294 80.3479 41.6616 80.3479 41.0859C80.3479 36.9527 77.243 33.5663 73.2496 33.0469V24.378H82.0281L82.0275 55.7516ZM82.0275 22.2903H63.1024V20.1367H67.0176C67.5939 20.1367 68.0628 19.6689 68.0628 19.0932C68.0628 16.1379 65.9167 13.6743 63.1031 13.1787V10.9327H82.0281L82.0275 22.2903Z" fill="black"/>
</svg>
