<svg width="100" height="87" viewBox="0 0 100 87" fill="none" xmlns="http://www.w3.org/2000/svg">
<circle cx="76" cy="25" r="13" fill="#FF951A"/>
<path d="M64.4905 86.7506H9.12459C4.3658 86.7506 0.490967 82.8782 0.490967 78.1195C0.490967 73.3607 4.36333 69.4858 9.12459 69.4858L64.4905 69.4866C69.2493 69.4866 73.1242 73.359 73.1242 78.1203C73.1242 82.8807 69.2518 86.7506 64.4905 86.7506V86.7506ZM9.12459 71.7368C5.60585 71.7368 2.74107 74.6007 2.74107 78.1203C2.74107 81.639 5.60338 84.5038 9.12459 84.5038L64.4905 84.503C68.0093 84.503 70.8741 81.639 70.8741 78.1217C70.8741 74.603 68.0101 71.7382 64.4905 71.7382L9.12459 71.739V71.7368Z" fill="black"/>
<path d="M13.8808 82.2641C11.5947 82.2641 9.73608 80.403 9.73608 78.1193C9.73608 75.8355 11.5948 73.9746 13.8808 73.9746C16.1669 73.9746 18.0272 75.8357 18.0272 78.1193C18.0272 80.4038 16.1661 82.2641 13.8808 82.2641ZM13.8808 76.2229C12.837 76.2229 11.986 77.073 11.986 78.1177C11.986 79.1615 12.8362 80.0125 13.8808 80.0125C14.9271 80.0125 15.7773 79.1623 15.7773 78.1177C15.7773 77.0738 14.9247 76.2229 13.8808 76.2229Z" fill="black"/>
<path d="M29.1652 82.2641C26.8791 82.2641 25.0188 80.403 25.0188 78.1193C25.0188 75.8355 26.8775 73.9746 29.1652 73.9746C31.4538 73.9746 33.3116 75.8357 33.3116 78.1193C33.3116 80.4038 31.4513 82.2641 29.1652 82.2641V82.2641ZM29.1652 76.2229C28.1189 76.2229 27.2687 77.073 27.2687 78.1177C27.2687 79.1615 28.1189 80.0125 29.1652 80.0125C30.2114 80.0125 31.0616 79.1623 31.0616 78.1177C31.0616 77.0738 30.209 76.2229 29.1652 76.2229V76.2229Z" fill="black"/>
<path d="M44.4498 82.2641C42.1637 82.2641 40.3035 80.403 40.3035 78.1193C40.3035 75.8355 42.1621 73.9746 44.4498 73.9746C46.7384 73.9746 48.5962 75.8357 48.5962 78.1193C48.597 80.4038 46.7359 82.2641 44.4498 82.2641ZM44.4498 76.2229C43.4036 76.2229 42.5534 77.073 42.5534 78.1177C42.5534 79.1615 43.4036 80.0125 44.4498 80.0125C45.4961 80.0125 46.3463 79.1623 46.3463 78.1177C46.3471 77.0738 45.4961 76.2229 44.4498 76.2229Z" fill="black"/>
<path d="M59.7343 82.2641C57.4482 82.2641 55.5896 80.403 55.5896 78.1193C55.5896 75.8355 57.4507 73.9746 59.7343 73.9746C62.0182 73.9746 63.8791 75.8357 63.8791 78.1193C63.8783 80.4038 62.0204 82.2641 59.7343 82.2641ZM59.7343 76.2229C58.6881 76.2229 57.8395 77.073 57.8395 78.1177C57.8395 79.1615 58.6897 80.0125 59.7343 80.0125C60.7782 80.0125 61.6292 79.1623 61.6292 78.1177C61.6284 77.0738 60.7806 76.2229 59.7343 76.2229Z" fill="black"/>
<path d="M64.4905 71.7356H9.12452C8.50337 71.7356 7.99951 71.2317 7.99951 70.6106V59.5269C7.99951 58.9057 8.50335 58.4019 9.12452 58.4019H23.2818V30.5234C23.2818 29.9023 23.7856 29.3984 24.4068 29.3984H56.5373C56.9961 29.3984 57.41 29.6773 57.5811 30.1024L65.5349 49.8847C65.5887 50.0173 65.616 50.1611 65.616 50.3034V70.6049C65.616 71.2309 65.1146 71.7347 64.491 71.7347L64.4905 71.7356ZM10.2498 69.4855H63.3652V50.5268L55.7762 31.6517H25.5321V59.5301C25.5321 60.1513 25.0282 60.6551 24.4071 60.6551H10.2498L10.2498 69.4855Z" fill="black"/>
<path d="M52.7402 31.65C52.7202 31.65 52.7017 31.6499 52.6816 31.6475C52.0604 31.6162 51.5839 31.0874 51.6177 30.4663L51.8041 26.8688C51.8202 26.5626 51.9592 26.2773 52.189 26.0764L65.4528 14.5539C65.9229 14.1465 66.6317 14.1964 67.0391 14.6664C67.4465 15.1341 67.3967 15.8453 66.929 16.2527L54.0276 27.46L53.8653 30.5786C53.8315 31.1845 53.3349 31.6498 52.7403 31.6498L52.7402 31.65Z" fill="black"/>
<path d="M41.6687 31.65C41.5047 31.65 41.3376 31.6138 41.1801 31.5375C40.62 31.2675 40.3861 30.5949 40.6561 30.0348L47.8514 15.1349C47.9478 14.9324 48.1053 14.7637 48.299 14.6512L60.654 7.46474C61.0076 7.25983 61.4463 7.26224 61.7951 7.47117C62.1462 7.68009 62.3552 8.065 62.3439 8.47242C62.3415 8.53108 62.3415 8.58974 62.3415 8.6476C62.3415 9.28644 61.7967 9.79993 61.1651 9.77261L49.7286 16.4238L42.6837 31.0126C42.4876 31.416 42.0867 31.6499 41.6688 31.6499L41.6687 31.65Z" fill="black"/>
<path d="M68.2901 16.8489C63.7677 16.8489 60.0889 13.1701 60.0889 8.65016C60.0889 4.1302 63.7677 0.451416 68.2901 0.451416C72.8125 0.451416 76.4913 4.1302 76.4913 8.65016C76.4913 13.1701 72.8125 16.8489 68.2901 16.8489ZM68.2901 2.69885C65.01 2.69885 62.3388 5.36758 62.3388 8.64769C62.3388 11.9278 65.0075 14.5965 68.2901 14.5965C71.5727 14.5965 74.2414 11.9278 74.2414 8.64769C74.2414 5.36675 71.5727 2.69885 68.2901 2.69885Z" fill="black"/>
<path d="M91.7148 66.6216C85.2146 66.6216 80.6198 65.0241 78.0146 61.8451C74.1558 57.1402 76.2283 50.8811 76.3183 50.6151C76.3833 50.4239 76.4983 50.2551 76.6533 50.1225L80.9797 46.4277C81.1822 46.2541 81.4434 46.1577 81.711 46.1577H89.4148C89.7659 46.1577 90.0962 46.3216 90.3084 46.5989C90.5221 46.8777 90.592 47.2401 90.4996 47.5776C89.1223 52.6378 90.0858 56.924 93.3619 60.3126C95.8433 62.8776 98.7371 63.9438 98.7667 63.9551C99.2552 64.1303 99.559 64.6189 99.5027 65.134C99.4465 65.6491 99.0463 66.0613 98.5328 66.1288C96.0659 66.4567 93.7934 66.6214 91.7144 66.6214L91.7148 66.6216ZM78.3674 51.618C78.0588 52.7591 77.0961 57.1933 79.7648 60.4316C82.2461 63.4443 87.3425 64.7516 94.6061 64.2678C93.6924 63.6514 92.6936 62.8615 91.7438 61.8805C89.2625 59.3131 86.699 54.944 87.9928 48.4117H82.1252L78.3674 51.618Z" fill="black"/>
<path d="M86.679 48.4096C86.1976 48.4096 85.7517 48.097 85.6038 47.6133L74.2751 10.4654C74.0927 9.87155 74.4278 9.24155 75.0224 9.06155C75.6162 8.88155 76.2438 9.21423 76.4262 9.80887L87.7549 46.9567C87.9373 47.5506 87.6023 48.1806 87.0076 48.3606C86.8991 48.3943 86.7891 48.4096 86.679 48.4096L86.679 48.4096Z" fill="black"/>
<path d="M78.8225 50.8739C78.3412 50.8739 77.8952 50.5638 77.7473 50.08L67.2938 16.0528C67.1114 15.459 67.4449 14.829 68.0387 14.6466C68.6325 14.4642 69.2625 14.7976 69.4449 15.3915L79.8985 49.4187C80.0809 50.0125 79.7474 50.6425 79.1536 50.8249C79.0427 50.8587 78.9326 50.8739 78.8225 50.8739H78.8225Z" fill="black"/>
<path d="M57.5312 64.7741H31.3684C30.7473 64.7741 30.2434 64.2703 30.2434 63.6491V37.4863C30.2434 36.8652 30.7472 36.3613 31.3684 36.3613H51.8345C52.2934 36.3613 52.7072 36.6402 52.8784 37.0653L58.5756 51.2355C58.6295 51.3681 58.6568 51.5119 58.6568 51.6542V63.6491C58.6568 64.2711 58.1521 64.775 57.5318 64.775L57.5312 64.7741ZM32.4937 62.524H56.4059V51.8727L51.0734 38.6114H32.4933L32.4937 62.524Z" fill="black"/>
<path d="M57.5312 52.7791H31.3684C30.7473 52.7791 30.2434 52.2752 30.2434 51.6541C30.2434 51.0329 30.7472 50.5291 31.3684 50.5291H57.5312C58.1523 50.5291 58.6562 51.0329 58.6562 51.6541C58.657 52.2752 58.1524 52.7791 57.532 52.7791H57.5312Z" fill="black"/>
<path d="M41.6006 52.7789C40.9794 52.7789 40.4756 52.275 40.4756 51.6539V37.4837C40.4756 36.8625 40.9794 36.3586 41.6006 36.3586C42.2218 36.3586 42.7256 36.8625 42.7256 37.4837V51.6539C42.7256 52.2774 42.221 52.7789 41.6006 52.7789Z" fill="black"/>
<path d="M41.6007 57.0044H37.6631C37.0419 57.0044 36.5381 56.5006 36.5381 55.8794C36.5381 55.2582 37.0419 54.7544 37.6631 54.7544H41.6007C42.2218 54.7544 42.7257 55.2582 42.7257 55.8794C42.7257 56.5006 42.221 57.0044 41.6007 57.0044Z" fill="black"/>
</svg>
