<svg width="79" height="86" viewBox="0 0 79 86" fill="none" xmlns="http://www.w3.org/2000/svg">
<circle cx="56" cy="26" r="13" fill="#FF951A"/>
<path d="M57.0639 58.8489C56.5331 59.1637 56.3065 59.8153 56.5287 60.391C56.7509 60.9668 57.3566 61.2983 57.9606 61.1749C59.567 60.5471 61.3551 60.5709 62.9439 61.241C64.5327 61.9111 65.7971 63.1745 66.4698 64.7626C67.1416 66.3505 67.1681 68.1377 66.5438 69.745C66.4204 70.349 66.751 70.9547 67.3268 71.1769C67.9025 71.3991 68.555 71.1734 68.8689 70.6417C69.7188 68.433 69.6765 65.9811 68.7525 63.8032C67.8276 61.6246 66.0942 59.8902 63.9154 58.9662C61.7368 58.0413 59.2847 57.9998 57.0761 58.8489L57.0639 58.8489Z" fill="black"/>
<path d="M63.1809 73.3215C61.5197 74.1256 59.5976 74.2006 57.8793 73.5278C56.16 72.8542 54.8003 71.4946 54.1268 69.7753C53.454 68.0569 53.5281 66.1348 54.3331 64.4729C54.4327 63.9138 54.1462 63.3566 53.633 63.1115C53.1199 62.8664 52.5062 62.9951 52.1341 63.4245C51.0664 65.6975 50.9844 68.3101 51.9075 70.6456C52.8307 72.9813 54.6762 74.8319 57.0082 75.7621C59.3412 76.6923 61.9536 76.6182 64.2302 75.5584C64.5882 75.4596 64.8844 75.2084 65.0405 74.8707C65.1965 74.5339 65.1965 74.1459 65.0396 73.8082C64.8835 73.4714 64.5873 73.2201 64.2293 73.1214C63.8714 73.0226 63.4878 73.087 63.181 73.296L63.1809 73.3215Z" fill="black"/>
<path d="M76.9088 69.0105C76.7254 68.9355 76.609 68.7539 76.6178 68.5555C76.669 67.8317 76.669 67.1051 76.6178 66.3813C76.609 66.1838 76.7184 65.9995 76.8965 65.914C78.383 65.3056 79.1078 63.6189 78.5267 62.1217L77.0728 58.5191C76.4547 57.0431 74.7814 56.3175 73.2815 56.8765C73.0955 56.9524 72.8821 56.9012 72.7507 56.7496C72.2763 56.1976 71.765 55.6783 71.221 55.1951C71.0702 55.0629 71.0235 54.8469 71.1072 54.6643C71.4132 53.9387 71.4167 53.1214 71.1178 52.3932C70.8189 51.6649 70.2414 51.0856 69.5149 50.7841L65.9256 49.2544H65.9247C64.4311 48.6178 62.7022 49.2985 62.0444 50.7841C61.966 50.9622 61.7843 51.0733 61.5895 51.0619C60.8656 51.0116 60.1391 51.0116 59.4152 51.0619C59.2212 51.0698 59.0423 50.9596 58.9603 50.7841C58.3519 49.2976 56.6652 48.5719 55.168 49.153L51.553 50.6069C51.2479 50.7321 50.9667 50.9075 50.7189 51.1253C48.3895 50.4156 46.0107 49.8786 43.6028 49.5198C42.4443 49.2773 41.6093 48.2633 41.5926 47.08V45.7275C42.4884 45.1702 43.3348 44.5354 44.1212 43.8318C46.9806 41.2634 48.7529 37.7014 49.0754 33.8713C50.0973 33.8387 51.0654 33.4075 51.7734 32.6704C52.4823 31.9342 52.8746 30.9494 52.8676 29.9275V26.9068C52.857 25.8761 52.4497 24.8895 51.7302 24.1515C52.4188 22.143 52.7979 20.0419 52.8553 17.9198C52.8605 16.6475 52.3871 15.4202 51.5274 14.4822C51.5116 14.4372 51.5116 14.3878 51.5274 14.3428C51.5433 13.1146 51.1897 11.9112 50.5135 10.8858C49.8381 9.86038 48.87 9.06158 47.7361 8.59164C47.6161 8.54491 47.5306 8.43999 47.5086 8.3139C47.2494 7.29467 46.6789 6.3821 45.8766 5.70239C45.0751 5.0226 44.0814 4.60998 43.0339 4.52179C42.4449 3.62157 41.5844 2.93296 40.5775 2.55562C39.5706 2.17824 38.4693 2.1324 37.4342 2.42336C37.3486 2.4551 37.2525 2.43041 37.1935 2.35988C36.1583 1.3283 34.7564 0.749023 33.2947 0.749023C31.8328 0.749023 30.4301 1.3283 29.395 2.35988C29.3368 2.43041 29.2407 2.4551 29.1552 2.42336C28.1201 2.13239 27.0189 2.17826 26.0119 2.55562C25.005 2.93299 24.1445 3.6216 23.5555 4.52179C22.508 4.60996 21.5143 5.0226 20.7119 5.70239C19.9096 6.38217 19.34 7.29473 19.0808 8.3139C19.0587 8.43998 18.9723 8.5449 18.8533 8.59164C17.7185 9.06158 16.7513 9.86041 16.075 10.8858C15.3987 11.9112 15.046 13.1147 15.061 14.3428C15.0592 14.3957 15.0363 14.4451 14.9975 14.4822C14.1678 15.4335 13.7182 16.6573 13.734 17.9198C13.7376 20.0641 14.07 22.1959 14.7198 24.2398C13.9598 24.9857 13.5321 26.0058 13.5313 27.0709V30.0668C13.5339 31.0834 13.9307 32.0594 14.6378 32.7903C15.3449 33.5212 16.3077 33.9488 17.3233 33.985C17.6795 37.8133 19.4888 41.3595 22.3798 43.8943C23.146 44.5706 23.9659 45.1833 24.8317 45.7273V47.1301C24.8017 48.2684 24.0153 49.2471 22.9105 49.5195L18.8786 50.3034C13.5698 51.3279 8.78395 54.1669 5.3409 58.3347C1.89695 62.5016 0.0111061 67.738 0.0065918 73.1436V78.7309V78.7301C0.0065918 80.0323 0.522395 81.2809 1.442 82.2031C2.36161 83.1245 3.60922 83.6438 4.91055 83.6473H50.7193C52.0418 84.3395 53.4102 84.939 54.8149 85.4425C55.5352 85.7528 56.349 85.7617 57.0765 85.4672C57.8031 85.1727 58.3814 84.5987 58.683 83.8748C58.7623 83.6897 58.9493 83.5733 59.1503 83.5847C59.8742 83.635 60.6007 83.635 61.3245 83.5847C61.5238 83.5706 61.7081 83.6888 61.7795 83.8748C62.2371 84.9937 63.3269 85.7228 64.5348 85.7202C64.9122 85.7237 65.286 85.6506 65.6343 85.506L69.2493 84.0397H69.2502C70.7314 83.426 71.4544 81.7446 70.8804 80.2475C70.8037 80.0614 70.8549 79.8481 71.0065 79.7167C71.5514 79.2388 72.0663 78.7283 72.5486 78.1869C72.6835 78.0397 72.8969 77.9939 73.0794 78.0732C73.8024 78.38 74.6171 78.388 75.3445 78.0935C76.0727 77.7999 76.6538 77.2285 76.9597 76.5055L78.4762 72.9162H78.4771C78.7919 72.1906 78.8033 71.3697 78.5089 70.6361C78.2144 69.9016 77.6386 69.3162 76.9095 69.0102L76.9088 69.0105ZM47.1551 52.7554C48.0104 52.9194 48.8542 53.1355 49.6829 53.4C49.6908 53.7562 49.764 54.1071 49.898 54.4368C49.9739 54.622 49.9236 54.8362 49.772 54.9676C49.2191 55.442 48.6998 55.9525 48.2167 56.4965C48.0809 56.6411 47.8693 56.6861 47.6859 56.6102C47.528 56.5388 47.3623 56.4841 47.193 56.4462L47.1551 52.7554ZM16.8191 16.201C17.2723 15.7029 17.5245 15.0548 17.5271 14.3812C17.5157 13.6485 17.7237 12.9299 18.1249 12.3171C18.5261 11.7044 19.1009 11.2256 19.7763 10.9435C20.621 10.5961 21.2496 9.86869 21.4701 8.98346C21.761 7.75878 22.909 6.9344 24.1628 7.0499C24.6971 7.09839 25.2041 6.8048 25.4272 6.31721C25.9218 5.13837 27.2179 4.51414 28.4479 4.86329C29.4354 5.15602 30.5041 4.86153 31.2032 4.10503C32.3715 3.00555 34.1939 3.00555 35.3622 4.10503C36.0667 4.85183 37.1318 5.14013 38.1175 4.85095C39.3475 4.50179 40.6435 5.12605 41.1383 6.30398C41.3613 6.79157 41.8683 7.08604 42.4026 7.03755C43.6467 6.94233 44.7735 7.76936 45.0566 8.98346C45.2735 9.86693 45.8977 10.5952 46.738 10.9435C47.4125 11.2265 47.9856 11.7053 48.385 12.318C48.7835 12.9317 48.9898 13.6503 48.9757 14.3812C48.9775 15.0548 49.2297 15.7029 49.6829 16.201C50.1131 16.6718 50.3565 17.2829 50.3662 17.9203C50.2921 19.7877 49.9341 21.634 49.3037 23.393C47.7942 23.4124 46.2997 23.7033 44.8926 24.2526V18.9438C44.8926 15.3033 41.5175 12.3329 36.9547 13.7991C34.5149 14.5644 31.8991 14.5644 29.4594 13.7991C24.8331 12.3205 21.5214 15.3924 21.5338 18.9438V24.3037C20.1223 23.7544 18.6242 23.4634 17.1103 23.444C16.4834 21.6665 16.1334 19.8035 16.0734 17.9201C16.0831 17.2826 16.3256 16.6716 16.7558 16.2008L16.8191 16.201ZM24.0869 42.0114C21.4111 39.6511 19.8469 36.2769 19.7762 32.7086C19.7762 32.3736 19.6431 32.0518 19.4068 31.8146C19.1696 31.5783 18.8478 31.4452 18.5128 31.4452H17.5014C16.7158 31.4311 16.0854 30.7901 16.0854 30.0036V27.0711C16.0802 26.625 16.2812 26.2009 16.6295 25.9214C18.1592 25.9214 20.4217 26.2502 21.1298 26.9327H21.1289C21.627 27.4291 22.3773 27.5728 23.0236 27.2942C23.6699 27.0156 24.0808 26.3719 24.0614 25.6683V18.9057C24.0614 16.7826 25.957 15.2528 28.7511 16.1504C31.6854 17.0639 34.8287 17.0639 37.7638 16.1504C40.4812 15.2784 42.4659 16.7315 42.4659 18.9057V25.6683C42.4536 26.3711 42.868 27.0112 43.5143 27.288C44.1597 27.5658 44.9091 27.4247 45.4108 26.9327C46.1055 26.2379 48.4949 25.9214 50.0246 25.9214H50.0237C50.282 26.1903 50.4267 26.5474 50.4284 26.9195V29.9032C50.4355 30.285 50.29 30.6544 50.0246 30.9295C49.7592 31.2046 49.3951 31.3624 49.0133 31.3695H48.002C47.3037 31.3695 46.7376 31.9346 46.7376 32.6329C46.705 36.1879 45.1779 39.5649 42.5285 41.9358C40.0122 44.259 36.7163 45.556 33.2909 45.5702C29.8655 45.5843 26.5592 44.3147 24.0233 42.0116L24.0869 42.0114ZM27.3607 46.992C31.1387 48.4971 35.3505 48.4971 39.1287 46.992C39.0926 48.7775 40.0007 50.4491 41.5172 51.3908C39.2073 53.2106 36.3398 54.1779 33.3994 54.1294C30.459 54.0808 27.6252 53.0202 25.376 51.1253C26.6518 50.1369 27.388 48.6055 27.3607 46.992V46.992ZM15.1757 54.0826C16.4859 53.5236 17.85 53.0995 19.2456 52.8192V56.3584C19.2456 57.0567 19.8116 57.6218 20.5099 57.6218C21.2082 57.6218 21.7734 57.0567 21.7734 56.3584V52.2885L22.835 52.0866L22.8358 52.0857C25.6794 54.9326 29.5323 56.5409 33.5564 56.5621C37.5795 56.5841 41.4494 55.0156 44.3236 52.1995L44.7151 52.2753V57.0286C44.3219 57.3301 44.0168 57.7313 43.8308 58.1907L42.3142 61.78L42.3133 61.7809C41.7684 63.0426 42.1732 64.514 43.2867 65.3201H21.7989V62.1601C21.7989 61.4618 21.2329 60.8957 20.5355 60.8957C19.8372 60.8957 19.2711 61.4618 19.2711 62.1601V65.3201H17.0968C16.4215 65.321 15.7558 65.4761 15.1501 65.775L15.1757 54.0826ZM11.4593 72.6892C10.2373 73.9236 9.55133 75.5907 9.55133 77.3278V81.12H4.91177C3.57687 81.113 2.49776 80.0285 2.49776 78.6927V73.1442C2.49776 65.8279 6.33671 59.0486 12.61 55.2837V69.7443C12.6144 70.8244 12.1868 71.8621 11.4215 72.6257L11.4593 72.6892ZM49.657 80.0461L49.6578 80.0452C49.5106 80.3988 49.4286 80.7753 49.4171 81.1579H12.0411V77.3278C12.0323 76.2424 12.4608 75.1994 13.2287 74.4332C14.4754 73.1935 15.1685 71.5025 15.15 69.7445C15.15 68.6688 16.022 67.7977 17.0967 67.7977H44.0696V68.2782C44.0828 68.4766 43.9656 68.6617 43.7786 68.7331C42.2974 69.3459 41.5779 71.0309 42.1607 72.5254L43.1218 74.9148L21.1659 74.9139C20.4684 74.9139 19.9024 75.4799 19.9024 76.1783C19.9024 76.8757 20.4684 77.4417 21.1659 77.4417H44.6131C45.4436 78.0457 46.5255 78.1841 47.4821 77.8085C47.6708 77.7433 47.8806 77.7979 48.0129 77.9478C48.4873 78.4954 48.9986 79.0111 49.5426 79.4899C49.6943 79.6327 49.7393 79.8549 49.6564 80.0454L49.657 80.0461ZM75.9369 71.3121V71.3112C76.0533 71.3562 76.145 71.4461 76.1926 71.5607C76.2411 71.6753 76.2393 71.8041 76.1899 71.9178L74.6734 75.5071V75.508C74.6258 75.6244 74.5332 75.717 74.4151 75.7619C74.2978 75.8078 74.1673 75.8025 74.0536 75.7478C72.8862 75.2541 71.5337 75.5591 70.6915 76.5061C70.3001 76.9566 69.8777 77.3798 69.4272 77.7704C68.4538 78.5878 68.1082 79.935 68.5675 81.12C68.6178 81.2338 68.6187 81.3625 68.5711 81.4771C68.5234 81.5917 68.4309 81.6817 68.3154 81.7266L64.7003 83.1929C64.4596 83.2802 64.1925 83.1638 64.0928 82.9275C63.6053 81.7637 62.4326 81.038 61.1735 81.12C60.5633 81.1641 59.9505 81.1641 59.3404 81.12C58.0928 81.0433 56.9307 81.7557 56.4334 82.9019C56.3858 83.0192 56.2932 83.1118 56.1769 83.1594C56.0605 83.207 55.9291 83.2052 55.8136 83.155L52.2365 81.6385C52.1201 81.5908 52.0275 81.4983 51.9799 81.3819C51.9323 81.2655 51.9341 81.1341 51.9843 81.0186C52.4728 79.853 52.1739 78.5066 51.2384 77.6566C50.7878 77.2651 50.3655 76.8428 49.974 76.3922C49.1479 75.4294 47.7989 75.1041 46.6244 75.5837C46.5539 75.6005 46.4798 75.6005 46.4093 75.5837C46.2982 75.4109 46.1465 75.2672 45.9676 75.1667L44.5516 71.6778C44.4643 71.4371 44.5807 71.17 44.817 71.0712C45.9808 70.5863 46.7144 69.4233 46.65 68.1642C46.6051 67.5541 46.6051 66.9413 46.65 66.3312C46.7161 65.0677 45.9755 63.9012 44.8046 63.4242C44.6874 63.3766 44.5948 63.284 44.5472 63.1677C44.5004 63.0513 44.5013 62.9199 44.5516 62.8044L46.0681 59.2273C46.1157 59.1109 46.2083 59.0183 46.3247 58.9707C46.4411 58.9231 46.5724 58.924 46.6879 58.9742C47.8553 59.468 49.2078 59.1629 50.05 58.216C50.4467 57.7707 50.8691 57.3493 51.3143 56.9525C52.2754 56.1316 52.606 54.7888 52.1361 53.6153C52.0858 53.5016 52.0849 53.3728 52.1325 53.2582C52.1801 53.1436 52.2727 53.0537 52.3882 53.0087L56.0033 51.5424C56.2404 51.4534 56.5067 51.5636 56.6107 51.7946C57.0869 52.9716 58.2639 53.7096 59.5301 53.6276C60.1403 53.5897 60.7531 53.5897 61.3632 53.6276C62.6302 53.7167 63.8142 52.9902 64.3081 51.8202C64.4121 51.5892 64.681 51.4825 64.9147 51.5803L68.504 53.0969H68.5049C68.6213 53.1445 68.7138 53.2371 68.7615 53.3534C68.8091 53.4698 68.8073 53.6012 68.757 53.7167C68.2668 54.8779 68.5657 56.2226 69.503 57.0663C69.9482 57.4631 70.3697 57.8854 70.7673 58.3298C71.5838 59.29 72.9222 59.6206 74.0914 59.1515C74.3321 59.0642 74.5993 59.1806 74.698 59.4169L76.1643 63.0195C76.2551 63.2602 76.1449 63.53 75.9121 63.6385C74.7721 64.1305 74.0597 65.2811 74.1293 66.5209C74.1734 67.1354 74.1734 67.7517 74.1293 68.3663C74.0438 69.6324 74.7694 70.8139 75.9368 71.3112L75.9369 71.3121Z" fill="black"/>
</svg>
