<svg width="92" height="92" viewBox="0 0 92 92" fill="none" xmlns="http://www.w3.org/2000/svg">
<circle cx="79" cy="20" r="13" fill="#FF951A"/>
<g clip-path="url(#clip0_214_5)">
<path d="M29.3954 57.6103L28.5524 56.7673L25.8355 59.5437H25.836C25.5429 59.8435 25.4356 60.2789 25.5568 60.6804L27.0502 65.6275L21.5975 71.1998L19.2969 70.7362L23.67 66.2671C23.8861 66.0458 24.0042 65.7476 23.998 65.4385C23.9914 65.1294 23.8604 64.8358 23.6351 64.6243L18.2387 59.5586V59.5591C17.7828 59.1304 17.0672 59.1453 16.6298 59.593L12.2054 64.1144L11.635 61.8822L17.0882 56.3083L22.2334 57.5682C22.6282 57.6657 23.0451 57.5466 23.329 57.2555L26.1536 54.3687L25.1818 53.3968C24.9636 53.174 24.7695 52.9291 24.6022 52.6658L22.1435 55.1783L16.9984 53.9184C16.6036 53.8214 16.1867 53.94 15.9028 54.2311L9.53823 60.7363C9.25741 61.0233 9.14651 61.436 9.2461 61.8252L10.4839 66.6644C10.5866 67.0669 10.8987 67.3826 11.2997 67.4905C11.7012 67.5983 12.1293 67.4807 12.4199 67.184L17.4861 62.0069L21.2051 65.4979L16.1723 70.6411L16.1718 70.6406C15.8771 70.9419 15.7708 71.3804 15.8951 71.7829C16.0188 72.1859 16.3535 72.4888 16.7663 72.572L21.7549 73.5777C22.1369 73.6542 22.5317 73.5325 22.8043 73.2543L29.1699 66.7496C29.4631 66.4498 29.5699 66.0144 29.4492 65.6129L27.9558 60.6658L30.2763 58.2939V58.2944C29.9559 58.1024 29.6602 57.8729 29.3953 57.6101L29.3954 57.6103Z" fill="black"/>
<path d="M12.1603 6.9713C11.8584 6.67661 11.4205 6.57034 11.0175 6.69458C10.6145 6.8183 10.3121 7.15253 10.2284 7.5658L9.22265 12.5544C9.14564 12.9364 9.26731 13.3317 9.54608 13.6038L16.0513 19.9694C16.3516 20.2621 16.7865 20.3688 17.1879 20.2487L22.135 18.7553L24.5094 21.0784C24.6968 20.7606 24.9222 20.467 25.1815 20.2041L26.0337 19.3519L23.2573 16.6355V16.635C23.0427 16.425 22.7536 16.3069 22.4533 16.3075C22.3408 16.3075 22.2284 16.3239 22.1206 16.3562L17.174 17.8496L11.6012 12.3969L12.0658 10.0964L16.5349 14.4694H16.5344C16.7562 14.6835 17.054 14.8011 17.3625 14.7975C17.6716 14.7903 17.9652 14.6599 18.1768 14.4345L23.2424 9.03821C23.6706 8.5818 23.6557 7.86664 23.208 7.42873L18.6866 3.00485L20.9188 2.43395L26.4921 7.88823L25.2328 13.033C25.1358 13.4278 25.2549 13.8442 25.5455 14.1286L28.4323 16.9532L29.3949 15.9906V15.9901C29.6182 15.7673 29.8641 15.5676 30.128 15.3946L27.6227 12.9432L28.8821 7.79802C28.9791 7.40322 28.86 6.98686 28.5694 6.70245L22.0648 0.336836C21.7778 0.056013 21.3645 -0.0548864 20.9753 0.0452227L16.1361 1.28353V1.28302C15.7336 1.38621 15.4184 1.69836 15.3106 2.09931C15.2033 2.50078 15.3203 2.92895 15.6176 3.21901L20.7947 8.28519L17.3037 12.0042L12.1603 6.9713Z" fill="black"/>
<path d="M75.9502 53.6308C75.6503 53.3382 75.215 53.2314 74.8135 53.3515L69.8664 54.845L67.4807 52.51V52.5105C67.2918 52.8324 67.0633 53.1297 66.8015 53.3956L65.9585 54.2386L68.7441 56.9642V56.9647C69.0445 57.2568 69.4793 57.3636 69.8808 57.2435L74.8279 55.75L80.4002 61.2027L79.9355 63.5032L75.467 59.1306C75.2442 58.9186 74.9469 58.801 74.6389 58.8031C74.3298 58.8098 74.0367 58.9402 73.8246 59.1655L68.759 64.5619C68.3308 65.0183 68.3462 65.7334 68.7934 66.1713L73.3148 70.5957L71.0826 71.1661L65.5082 65.7118L66.7686 60.5667C66.8656 60.1719 66.7465 59.7555 66.4559 59.4711L63.5599 56.6372L62.5886 57.6086C62.3683 57.8288 62.1265 58.0265 61.8662 58.1985L64.3787 60.6566L63.1189 65.8017C63.0218 66.1965 63.1409 66.6134 63.4315 66.8973L69.9367 73.2629C70.2237 73.5437 70.6365 73.6546 71.0256 73.555L75.8648 72.3172C76.2673 72.2145 76.583 71.9024 76.6909 71.5009C76.7982 71.1 76.6811 70.6713 76.3839 70.3812L71.2068 65.3151L74.6978 61.596L79.841 66.6283C80.1423 66.923 80.5802 67.0293 80.9833 66.905C81.3863 66.7813 81.6887 66.4471 81.7723 66.0338L82.7781 61.0452C82.8551 60.6632 82.7334 60.2684 82.4546 59.9958L75.9502 53.6308Z" fill="black"/>
<path d="M62.5864 15.9896L63.4391 16.8418L66.1647 14.0562L66.1642 14.0567C66.4573 13.7569 66.5646 13.3215 66.4434 12.9201L64.95 7.97297L70.4027 2.40014L72.7038 2.86476L68.3308 7.33386V7.33334C68.1146 7.55462 67.9965 7.85289 68.0027 8.16196C68.0094 8.47103 68.1403 8.76468 68.3657 8.9762L73.762 14.0419V14.0413C74.2184 14.47 74.9335 14.4546 75.3709 14.0075L79.7953 9.48605L80.3657 11.7182L74.912 17.2916L69.7672 16.0322C69.3724 15.9342 68.955 16.0533 68.6716 16.3449L65.8378 19.2409L66.7998 20.203C67.0211 20.4294 67.2183 20.6779 67.3877 20.9454L69.8571 18.4216L75.0019 19.6809V19.6814C75.3967 19.7785 75.8135 19.6593 76.0974 19.3688L82.4625 12.8641C82.7433 12.5771 82.8542 12.1644 82.7546 11.7752L81.5169 6.93599H81.5174C81.4142 6.53349 81.1025 6.21776 80.7011 6.10994C80.2996 6.00213 79.8714 6.11969 79.5809 6.41643L74.5147 11.5935L70.7957 8.10253L75.8284 2.95881L75.829 2.95932C76.1236 2.65796 76.2299 2.21952 76.1057 1.81703C75.982 1.41401 75.6472 1.11111 75.2345 1.02794L70.2453 0.0222105C69.8633 -0.0547987 69.468 0.0668752 69.1959 0.345643L62.8308 6.85083C62.5377 7.15064 62.4309 7.58601 62.5516 7.98748L64.045 12.9346L61.7178 15.3126H61.7183C62.0335 15.5031 62.3251 15.7306 62.5864 15.9898L62.5864 15.9896Z" fill="black"/>
<path d="M65.3031 48.6563C66.5532 46.6186 67.4743 44.3967 68.0308 42.072C68.6063 42.0242 69.1423 41.7619 69.5335 41.3373C69.9247 40.9127 70.1414 40.3567 70.1414 39.7796V33.8201C70.1414 33.2431 69.9247 32.687 69.5335 32.2624C69.1423 31.8378 68.6064 31.5755 68.0308 31.5277C67.4743 29.203 66.5533 26.9811 65.3031 24.9434C65.6763 24.5035 65.8704 23.9387 65.8468 23.3617C65.8232 22.7852 65.5829 22.2384 65.1748 21.8298L60.9613 17.6163C60.5531 17.2081 60.0064 16.9684 59.4294 16.9448C58.8528 16.9206 58.2881 17.1147 57.8476 17.4879C55.81 16.2378 53.588 15.3173 51.2633 14.7603C51.2156 14.1853 50.9537 13.6488 50.5292 13.2575C50.1046 12.8668 49.5481 12.6497 48.9711 12.6497H43.0121C42.4351 12.6497 41.8785 12.8668 41.454 13.2575C41.0294 13.6487 40.7676 14.1852 40.7199 14.7603C38.3952 15.3173 36.1732 16.2378 34.1356 17.4879C33.6951 17.1147 33.1304 16.9206 32.5538 16.9448C31.9768 16.9684 31.43 17.2081 31.0219 17.6163L26.8084 21.8298C26.4003 22.2384 26.16 22.7852 26.1364 23.3617C26.1128 23.9387 26.3068 24.5035 26.6801 24.9434C25.43 26.9811 24.5089 29.203 23.9524 31.5277C23.3769 31.5755 22.8409 31.8378 22.4497 32.2624C22.0584 32.687 21.8418 33.243 21.8418 33.8201V39.7796C21.8418 40.3567 22.0584 40.9127 22.4497 41.3373C22.8409 41.7619 23.3768 42.0242 23.9524 42.072C24.5089 44.3967 25.4299 46.6186 26.6801 48.6563C26.3068 49.0962 26.1128 49.661 26.1364 50.238C26.1605 50.8145 26.4003 51.3613 26.8084 51.7694L31.0223 55.9833H31.0218C31.4299 56.3914 31.9767 56.6312 32.5537 56.6548C33.1302 56.6789 33.695 56.4849 34.1355 56.1116C36.1731 57.3617 38.3951 58.2823 40.7198 58.8393C40.7675 59.4143 41.0293 59.9508 41.4539 60.3421C41.8785 60.7328 42.435 60.9499 43.012 60.9499H48.971C49.548 60.9499 50.1045 60.7328 50.529 60.3421C50.9536 59.9508 51.2155 59.4144 51.2632 58.8393C53.5879 58.2823 55.8098 57.3618 57.8475 56.1116C58.288 56.4849 58.8527 56.6789 59.4292 56.6548C60.0063 56.6312 60.5531 56.3914 60.9612 55.9833L65.175 51.7694H65.1745C65.5827 51.3613 65.8224 50.8145 65.8466 50.238C65.8702 49.661 65.6761 49.0962 65.3029 48.6563H65.3031ZM59.3349 54.357L58.1264 53.1485C55.4357 55.1512 52.2897 56.4547 48.9711 56.9408V58.6499H43.0121V56.9408C39.6936 56.4546 36.5474 55.1512 33.8568 53.1485L32.6483 54.357L28.4344 50.1431L29.643 48.9351C27.6403 46.2444 26.3373 43.0984 25.851 39.7798H24.1419V33.8203H25.851C26.3372 30.5017 27.6401 27.3556 29.643 24.665L28.4344 23.4564L32.6483 19.2426L33.8568 20.4511V20.4516C36.5476 18.4489 39.6936 17.1454 43.0121 16.6592V14.9501H48.9711V16.6592C52.2897 17.1454 55.4358 18.4489 58.1264 20.4516L59.3349 19.2431L63.5488 23.4566L62.3403 24.6651C64.343 27.3558 65.646 30.5018 66.1327 33.8204H67.8418L67.8412 39.7799H66.1327C65.646 43.0985 64.343 46.2446 62.3403 48.9352L63.5488 50.1437L59.3349 54.357Z" fill="black"/>
<path d="M45.9908 18.9756C41.2629 18.9756 36.7292 20.8536 33.3865 24.1963C30.0433 27.5391 28.1653 32.0734 28.1653 36.8006C28.1653 41.5278 30.0433 46.0617 33.386 49.4048C36.7293 52.7476 41.2631 54.6256 45.9903 54.6256C50.7182 54.6256 55.2519 52.7476 58.5945 49.4048C61.9373 46.0621 63.8153 41.5278 63.8153 36.8006C63.8101 32.0748 61.9306 27.5441 58.5889 24.2025C55.2472 20.8608 50.7166 18.9808 45.9908 18.9756V18.9756ZM45.9908 52.3256C41.8729 52.3256 37.9244 50.6899 35.013 47.7784C32.101 44.867 30.4653 40.918 30.4653 36.8006C30.4653 32.6832 32.1009 28.7342 35.0124 25.8227C37.924 22.9113 41.8729 21.2756 45.9903 21.2756C50.1077 21.2756 54.0567 22.9112 56.9681 25.8227C59.8795 28.7342 61.5153 32.6832 61.5153 36.8006C61.5153 40.918 59.8796 44.867 56.9681 47.7784C54.0567 50.6898 50.1082 52.3256 45.9908 52.3256V52.3256Z" fill="black"/>
<path d="M55.1818 30.2023L47.1318 25.6023C46.4249 25.1983 45.5568 25.1983 44.8498 25.6023L36.7998 30.2023C36.4477 30.4036 36.155 30.6942 35.9517 31.0448C35.7479 31.3955 35.6411 31.7939 35.6411 32.1995V41.3995C35.6411 41.805 35.7479 42.2034 35.9517 42.5541C36.155 42.9047 36.4477 43.1953 36.7998 43.3966L44.8498 47.9966C45.5568 48.4006 46.4249 48.4006 47.1318 47.9966L55.1818 43.3966C55.534 43.1953 55.8266 42.9047 56.0299 42.5541C56.2337 42.2034 56.3405 41.8051 56.3405 41.3995V32.1995C56.3405 31.7939 56.2337 31.3955 56.0299 31.0448C55.8266 30.6942 55.534 30.4036 55.1818 30.2023ZM54.0405 41.3994L45.9911 45.9994L37.9411 41.3994V32.1994L45.9911 27.5994L54.0411 32.1994L54.0405 41.3994Z" fill="black"/>
<path d="M41.3909 36.7999C41.3909 38.0198 41.8755 39.1898 42.738 40.0528C43.6005 40.9153 44.7706 41.3999 45.9909 41.3999C47.2107 41.3999 48.3808 40.9153 49.2432 40.0528C50.1057 39.1898 50.5903 38.0197 50.5903 36.7999C50.5903 35.5802 50.1057 34.4101 49.2432 33.5471C48.3807 32.6846 47.2107 32.2 45.9909 32.2C44.7711 32.2015 43.602 32.6866 42.7396 33.5487C41.8771 34.4112 41.3919 35.5802 41.3909 36.7999ZM48.2909 36.7999C48.2909 37.4099 48.0485 37.9951 47.6168 38.4264C47.1855 38.8576 46.6008 39.0999 45.9909 39.0999C45.3805 39.0999 44.7957 38.8576 44.3645 38.4264C43.9332 37.9951 43.6909 37.4099 43.6909 36.7999C43.6909 36.19 43.9332 35.6048 44.3645 35.1735C44.7957 34.7423 45.3805 34.5 45.9909 34.5C46.6008 34.5 47.1855 34.7423 47.6168 35.1735C48.0486 35.6048 48.2909 36.19 48.2909 36.7999Z" fill="black"/>
</g>
<defs>
<clipPath id="clip0_214_5">
<rect width="92" height="92" fill="white"/>
</clipPath>
</defs>
</svg>
